<?xml version="1.0" encoding="utf-8"?><svg viewBox="0 0 24 24" xmlns="http://www.w3.org/2000/svg" xmlns:xlink="http://www.w3.org/1999/xlink"><style>:root>svg{display:none}:root>svg:target{display:block}</style><svg viewBox="0 0 20 20" id="arrow-right" xmlns="http://www.w3.org/2000/svg"><path d="M4.167 10h11.666m-5 5 5-5m-5-5 5 5"/></svg><svg viewBox="0 0 24 24" id="cart" xmlns="http://www.w3.org/2000/svg"><path d="M9 6v1a3 3 0 1 0 6 0V6"/><path d="M15.612 3H8.389a4 4 0 0 0-3.946 3.342l-1.667 10A4 4 0 0 0 6.722 21h10.556a4 4 0 0 0 3.946-4.658l-1.667-10A4 4 0 0 0 15.612 3Z"/></svg><svg viewBox="0 0 24 24" id="facebook" xmlns="http://www.w3.org/2000/svg"><path d="M18 3h-3a5 5 0 0 0-5 5v2H6v4h4v7h4v-7h4v-4h-4V8a1 1 0 0 1 1-1h3V3Z"/></svg><svg viewBox="0 0 20 20" id="heart" xmlns="http://www.w3.org/2000/svg"><path fill-rule="evenodd" clip-rule="evenodd" d="M10.577 5.764a.833.833 0 0 1-1.154 0l-.577-.554A3.75 3.75 0 0 0 2.5 7.916c0 1.986 1.075 3.626 2.627 4.973 1.552 1.348 3.41 2.242 4.519 2.699a.914.914 0 0 0 .708 0c1.11-.457 2.967-1.351 4.52-2.7 1.551-1.346 2.626-2.986 2.626-4.971a3.75 3.75 0 0 0-6.346-2.707l-.577.554ZM10 4.008A5.417 5.417 0 0 0 .833 7.917c0 5.306 5.809 8.237 8.179 9.212a2.58 2.58 0 0 0 1.976 0c2.37-.975 8.179-3.906 8.179-9.212A5.417 5.417 0 0 0 10 4.008Z"/></svg><svg viewBox="0 0 24 24" id="instagram" xmlns="http://www.w3.org/2000/svg"><rect x="2" y="2" width="20" height="20" rx="4"/><circle cx="18" cy="6" r="1"/><circle cx="12" cy="12" r="5"/></svg><svg viewBox="0 0 24 24" id="search" xmlns="http://www.w3.org/2000/svg"><path d="M18.5 18.5 22 22m-1-10.5a9.5 9.5 0 1 0-19 0 9.5 9.5 0 0 0 19 0Z"/></svg><svg viewBox="0 0 12 12" id="tagline-close" xmlns="http://www.w3.org/2000/svg"><path fill-rule="evenodd" clip-rule="evenodd" d="M11.442 1.442a.625.625 0 1 0-.884-.884L6 5.116 1.442.558a.625.625 0 0 0-.884.884L5.116 6 .558 10.558a.625.625 0 1 0 .884.884L6 6.884l4.558 4.558a.625.625 0 1 0 .884-.884L6.884 6l4.558-4.558Z"/></svg><svg viewBox="0 0 24 24" id="user" xmlns="http://www.w3.org/2000/svg"><path d="M18.559 19.549a7.003 7.003 0 0 0-13.118 0m13.118 0A9.976 9.976 0 0 0 22 12c0-5.523-4.477-10-10-10S2 6.477 2 12a9.977 9.977 0 0 0 3.441 7.549m13.118 0A9.961 9.961 0 0 1 12 22a9.961 9.961 0 0 1-6.559-2.451M15 9a3 3 0 1 1-6 0 3 3 0 0 1 6 0Z"/></svg><svg viewBox="0 0 24 24" id="youtube" xmlns="http://www.w3.org/2000/svg"><rect x="2" y="3" width="20" height="18" rx="4"/><path d="m10.447 8.724 4.764 2.382a1 1 0 0 1 0 1.788l-4.764 2.382A1 1 0 0 1 9 14.382V9.618a1 1 0 0 1 1.447-.894Z"/></svg></svg>